<svg xmlns="http://www.w3.org/2000/svg" viewBox="0 0 400 300" width="400" height="300">
  <rect x="140" y="30" width="120" height="50" rx="8" stroke="#34d399" stroke-width="2" fill="#34d399" fill-opacity="0.08"></rect>
  <rect x="40" y="140" width="100" height="45" rx="8" stroke="#34d399" stroke-width="1.5" fill="none" opacity="0.5"></rect>
  <rect x="260" y="140" width="100" height="45" rx="8" stroke="#34d399" stroke-width="1.5" fill="none" opacity="0.5"></rect>
  <rect x="150" y="230" width="100" height="45" rx="8" stroke="#34d399" stroke-width="1.5" fill="none" opacity="0.5"></rect>
  <line x1="200" y1="80" x2="90" y2="140" stroke="#34d399" stroke-width="1.5" opacity="0.3"></line>
  <line x1="200" y1="80" x2="310" y2="140" stroke="#34d399" stroke-width="1.5" opacity="0.3"></line>
  <line x1="90" y1="185" x2="200" y2="230" stroke="#34d399" stroke-width="1.5" opacity="0.3"></line>
  <line x1="310" y1="185" x2="200" y2="230" stroke="#34d399" stroke-width="1.5" opacity="0.3"></line>
  <rect x="165" y="48" width="70" height="5" rx="2" fill="#34d399" opacity="0.5"></rect>
  <rect x="60" y="158" width="60" height="4" rx="2" fill="#34d399" opacity="0.4"></rect>
  <rect x="280" y="158" width="55" height="4" rx="2" fill="#34d399" opacity="0.4"></rect>
  <rect x="170" y="248" width="65" height="4" rx="2" fill="#34d399" opacity="0.4"></rect>
  <circle cx="340" cy="60" r="22" stroke="#34d399" stroke-width="2" fill="none" opacity="0.35"></circle>
  <line x1="356" y1="76" x2="375" y2="95" stroke="#34d399" stroke-width="3" stroke-linecap="round" opacity="0.35"></line>
</svg>